<?xml version="1.0" encoding="UTF-8" standalone="no"?>
<svg
   xmlns:dc="http://purl.org/dc/elements/1.1/"
   xmlns:cc="http://creativecommons.org/ns#"
   xmlns:rdf="http://www.w3.org/1999/02/22-rdf-syntax-ns#"
   xmlns:svg="http://www.w3.org/2000/svg"
   xmlns="http://www.w3.org/2000/svg"
   xmlns:sodipodi="http://sodipodi.sourceforge.net/DTD/sodipodi-0.dtd"
   xmlns:inkscape="http://www.inkscape.org/namespaces/inkscape"
   width="210mm"
   height="297mm"
   viewBox="0 0 210 297"
   version="1.1"
   id="svg8"
   inkscape:version="1.0.2-2 (e86c870879, 2021-01-15)"
   sodipodi:docname="profile.svg"
   inkscape:export-filename="C:\Users\Diablo\Desktop\pr\img\profile.png"
   inkscape:export-xdpi="224.647"
   inkscape:export-ydpi="224.647">
  <defs
     id="defs2" />
  <sodipodi:namedview
     id="base"
     pagecolor="#ffffff"
     bordercolor="#666666"
     borderopacity="1.0"
     inkscape:pageopacity="0.0"
     inkscape:pageshadow="2"
     inkscape:zoom="3.1364238"
     inkscape:cx="41.351655"
     inkscape:cy="85.340427"
     inkscape:document-units="mm"
     inkscape:current-layer="layer1"
     inkscape:document-rotation="0"
     showgrid="false"
     inkscape:window-width="1600"
     inkscape:window-height="1137"
     inkscape:window-x="-8"
     inkscape:window-y="-8"
     inkscape:window-maximized="1" />
  <metadata
     id="metadata5">
    <rdf:RDF>
      <cc:Work
         rdf:about="">
        <dc:format>image/svg+xml</dc:format>
        <dc:type
           rdf:resource="http://purl.org/dc/dcmitype/StillImage" />
        <dc:title />
      </cc:Work>
    </rdf:RDF>
  </metadata>
  <g
     inkscape:label="Layer 1"
     inkscape:groupmode="layer"
     id="layer1">
    <circle
       style="opacity:0.998;fill:#999999;stroke-width:465;stroke-linejoin:round"
       id="path1475"
       sodipodi:type="arc"
       sodipodi:cx="30.954182"
       sodipodi:cy="33.486328"
       sodipodi:rx="13.487549"
       sodipodi:ry="15.606282"
       sodipodi:start="0"
       sodipodi:end="6.2666221"
       sodipodi:open="true"
       sodipodi:arc-type="arc"
       d="M 44.44173,33.486328 A 13.487549,15.606282 0 0 1 31.010031,49.092477 13.487549,15.606282 0 0 1 17.467095,33.615572 13.487549,15.606282 0 0 1 30.786638,17.88125 13.487549,15.606282 0 0 1 44.43988,33.22785" />
    <path
       style="fill:#999999;stroke:none;stroke-width:0.251052px;stroke-linecap:butt;stroke-linejoin:miter;stroke-opacity:1"
       d="m 32.909934,14.145753 c -1.74815,-0.880106 -4.083816,-2.789911 -6.693883,-3.472224 -5.386568,-1.4081327 -10.651508,4.750069 -12.332609,7.823114 -2.005196,3.665491 -2.810223,9.357302 -1.725538,12.787197 0.510792,1.615187 2.861573,2.892931 2.861573,2.892931 6.354739,3.324805 11.950335,-14.539709 15.561459,-7.543834 3.611124,6.995876 16.672267,2.110607 16.503984,-6.130941 C 46.926567,12.746952 37.11661,7.2710737 37.11661,7.2710737 39.227926,10.984644 35.430541,15.254292 32.909934,14.145753 Z"
       id="path1655"
       sodipodi:nodetypes="csssssccc" />
    <circle
       style="opacity:0.998;fill:#b3b3b3;stroke:none;stroke-width:465;stroke-linejoin:round"
       id="path1657"
       sodipodi:type="arc"
       sodipodi:cx="26.561686"
       sodipodi:cy="33.227947"
       sodipodi:rx="2.0153809"
       sodipodi:ry="2.4804688"
       sodipodi:start="0"
       sodipodi:end="6.2666221"
       sodipodi:open="true"
       sodipodi:arc-type="arc"
       d="m 28.577066,33.227947 a 2.0153809,2.4804688 0 0 1 -2.007035,2.480448 2.0153809,2.4804688 0 0 1 -2.023657,-2.459906 2.0153809,2.4804688 0 0 1 1.990276,-2.500819 2.0153809,2.4804688 0 0 1 2.04014,2.439195" />
    <circle
       style="opacity:0.998;fill:#b3b3b3;stroke:none;stroke-width:465;stroke-linejoin:round"
       id="path1657-2"
       sodipodi:type="arc"
       sodipodi:cx="36.246586"
       sodipodi:cy="33.401783"
       sodipodi:rx="2.0153809"
       sodipodi:ry="2.4804688"
       sodipodi:start="0"
       sodipodi:end="6.2666221"
       sodipodi:open="true"
       sodipodi:arc-type="arc"
       d="M 38.261967,33.401783 A 2.0153809,2.4804688 0 0 1 36.254931,35.88223 2.0153809,2.4804688 0 0 1 34.231274,33.422325 2.0153809,2.4804688 0 0 1 36.221551,30.921506 2.0153809,2.4804688 0 0 1 38.26169,33.3607" />
  </g>
</svg>
